<?xml version="1.0" encoding="UTF-8"?>
<svg id="b" xmlns="http://www.w3.org/2000/svg" version="1.1" viewBox="0 0 251 251">
  <defs>
    <style>
      .cls-1 {
        fill: #427355;
      }

      .cls-1, .cls-2 {
        stroke-width: 0px;
      }

      .cls-2 {
        fill: #fff;
      }
    </style>
  </defs>
  <g id="c">
    <circle class="cls-2" cx="125.5" cy="125.5" r="124.8"/>
    <g>
      <path class="cls-1" d="M136.3,119.1c-2-.3-4.1-.6-6.4-.7-26-1.8-43.2,7.2-54.3,28.5-.5,1-.1,2.2.9,2.8,1,.5,2.2.1,2.8-.9,5.5-10.5,12.4-17.7,21.3-21.9-5.2,6.4-6.1,14-6.1,14.5-.1,1.1.7,2.1,1.8,2.2,0,0,.1,0,.2,0,1,0,1.9-.8,2-1.8,0-.1,1.6-13.1,12.4-18,.3-.1.5-.3.7-.5,5.4-1,11.4-1.3,18.1-.8,1.8.1,3.4.3,5,.5-1,2.4-1.9,4.8-2.7,7.5-9.9-.2-15.8,3.2-19.1,6.3-3.8,3.5-6,8.3-6,13.2s.9,2,2,2,2-.9,2-2c0-3.7,1.7-7.5,4.7-10.2,2.6-2.4,7.3-5.1,15.3-5.2-1.3,5.6-2.3,12.5-3,22.4-.1,1.7,1.1,3.2,2.8,3.3h.2c1.6,0,2.9-1.2,3.1-2.8.7-10.1,1.8-16.9,3.1-22.3,9.9,2.1,10.8,11,10.8,19.9s.9,2,2,2,2-.9,2-2c0-6.9,0-20.8-13.8-23.9.8-2.5,1.6-4.7,2.6-7,17.4,4.7,19.3,17,19.6,30.3,0,1.1.9,2,2,2h0c1.1,0,2-1,2-2.1-.3-13.8-2.5-28.4-22.1-34,.3-.6.6-1.3.9-1.9.8-1.8,1.7-3.7,2.6-5.9,0-.1,0-.2.1-.3.1-.1.2-.3.3-.5l7.2-14.7c.9.6,1.9,1.2,2.9,1.8,6.3,3.5,13.4,5.5,20.6,5.2h0c1.4,0,1.4-2.2,0-2.3-7.7-.9-15.3-3.9-21.7-8.4l10.6-21.7h0c.9-1.8-1.8-3.2-2.8-1.5,0,.1-16.5,28.8-21.1,36.9-.6-.3-1.2-.5-1.9-.8-1.9-1.2-3.5-2.9-4.8-4.9,7.5-4.9,7.2-14.3,5.9-18.6-.3-1.1-1.5-1.7-2.5-1.4-1.1.3-1.7,1.5-1.4,2.5.1.4,2.6,9.4-3.9,13.9-5.6-12.5-5-33.3-4.9-43.9,0-1.5-2.1-1.6-2.3-.2-1.1,10.4-1.2,20.7,0,31.1,1.3,9,3.4,20,12.1,25.1.6.3,1.2.6,1.8.8-.8,1.9-1.6,3.7-2.4,5.3-.5,1.1-1,2.1-1.4,3.1Z"/>
      <path class="cls-1" d="M128.5,53.9s0,0,0,0c0,0,0,0,0,0h0Z"/>
      <path class="cls-1" d="M180.3,174.6l-8.8,5c1.2-2.4,1.8-4.9,1.8-7.1,0-6.6-3.6-7.8-7.4-9.1-1.3-.4-2.7-.9-4.1-1.6-2.7-1.3-5.6-1.1-8,.4-2.1,1.3-3.6,3.5-4.3,6.2-1.6-3.7-4.2-5.8-7.6-5.8s-9.3,3.4-12.2,8.1c-2.1-6.6-8.7-12.1-14.1-12.1s-4.2,1-5.7,2.8c-1.2-3.3-4-4.3-6.9-5.3-1.3-.4-2.6-.9-4.1-1.5-2.7-1.3-5.6-1.1-8,.4-1.7,1.1-3,2.8-3.9,4.9-1.6-2.9-4-4.5-7-4.5-6.4,0-14.7,8.1-14.7,16.1s1.5,8.1,4,10.8c-.2,0-.4-.1-.6-.2l-13.9-6.3c-.8-.4-1.7,0-2,.8-.4.8,0,1.7.8,2l13.9,6.3c3.6,1.6,7.5,2,11.3,1.1,1.5-.2,2.9-.7,4.2-1.5l6.9-3.3c4.4-2.1,9.5-1.9,13.7.6l4.3,2.5c.8.5,1.7.9,2.5,1.2,0,0,.1,0,.2,0,4.5,1.7,9.6,1.5,14-.7l5-2.5c0,0,.1,0,.2,0l2.3-1.1c4.4-2.2,9.6-2,13.8.6l4.9,2.9c.1,0,.2.1.4.2,0,0,.1,0,.2.1,2.6,1.4,5.5,2.2,8.4,2.2h0c3,0,6-.7,8.6-2.2l13.4-7.6c.7-.4,1-1.3.6-2.1-.4-.7-1.3-1-2.1-.6ZM80.1,158.5c3.7,0,5.5,4.3,6,9.3,0,1.3,0,2.5.2,3.7,0,0,0,0,0,0,0,4.5-2,8.4-4.9,10.2h-.3c-.9.6-1.9.9-2.8,1.2-.3,0-.6,0-.8,0-4.9,0-8.9-5-8.9-11.5s6.8-13,11.7-13ZM88,178.5h-.1s0,0,0-.1c0,0,0,0,0,.1ZM90.9,177.4c-.8-1.6-1.2-3.7-1.4-6,0-1.5,0-2.8-.2-4.1,0-.7,0-1.3,0-2,0-3.4,1.3-6.3,3.4-7.6,1.5-1,3.3-1,5-.2,1.6.8,3.1,1.2,4.4,1.7,3.8,1.2,5.4,1.8,5.4,6.2s0,1.1-.2,1.7c-.1.4-.2.9-.3,1.3-.9,3.1-3,6.4-5.7,9-3.4-1-7-1-10.4,0ZM104.3,178.6c.7-.8,1.4-1.6,2.1-2.5.1,1.5.4,2.9.8,4.2l-2.2-1.3c-.2-.1-.5-.3-.7-.4ZM123.2,182.1c-3.5,1.7-7.6,1.9-11.2.6-1.6-2.1-2.5-4.9-2.5-8s.2-4.2.6-6.1c0-.2,0-.4.1-.6.9-3.6,2.6-6.3,5.5-6.3,4.9,0,11.6,6.6,11.6,13s-.5,4.2-1.3,6l-2.8,1.4ZM130.7,178.4l-.4.2c0-6.4,6.8-12.9,11.6-12.9s6.2,6.7,6.2,13,0,.5,0,.8l-.7-.4c-5.1-3.1-11.4-3.3-16.8-.7ZM153.2,182.5c-1-3.3-1.2-7.2-1.2-10s1.3-6.3,3.5-7.7c1.5-1,3.3-1,5-.2,1.6.8,3.1,1.3,4.5,1.7,3.8,1.2,5.3,1.8,5.3,6.2s-1.7,6.9-4.4,10.2c-4,1.9-8.7,1.8-12.6-.2Z"/>
      <path class="cls-1" d="M180.3,186l-13.4,7.6c-4.5,2.6-10.1,2.5-14.6-.2l-4.9-2.9c-5.1-3.1-11.4-3.3-16.8-.7l-7.5,3.7c-4.4,2.2-9.6,2-13.8-.5l-4.3-2.6c-5.1-3-11.3-3.3-16.6-.7l-7.4,3.6c-3.9,1.9-8.4,1.9-12.3.1l-13.9-6.3c-.8-.4-1.7,0-2,.8-.4.8,0,1.7.8,2l13.9,6.3c4.8,2.2,10.2,2.1,14.9-.2l7.4-3.6c4.4-2.1,9.5-1.9,13.7.6l4.3,2.5c5.1,3,11.4,3.3,16.7.7l7.5-3.7c4.4-2.2,9.6-2,13.8.6l4.9,2.9c2.8,1.6,5.9,2.5,9,2.5h0c3,0,6-.7,8.6-2.2l13.4-7.6c.7-.4,1-1.3.6-2.1-.4-.7-1.3-1-2.1-.6Z"/>
      <path class="cls-1" d="M180.3,197.4l-13.4,7.6c-4.5,2.5-10.1,2.5-14.6-.2l-4.9-2.9c-5.1-3.1-11.4-3.3-16.8-.7l-7.5,3.7c-4.4,2.2-9.6,2-13.8-.5l-4.3-2.5c-5.1-3-11.3-3.3-16.6-.7l-7.4,3.6c-3.9,1.9-8.4,1.9-12.3.2l-13.9-6.3c-.8-.3-1.7,0-2,.8-.4.8,0,1.7.8,2l13.9,6.3c4.8,2.2,10.2,2.1,14.9-.2l7.4-3.6c4.4-2.1,9.5-1.9,13.7.6l4.3,2.5c5.1,3,11.4,3.3,16.7.6l7.5-3.7c4.4-2.2,9.6-2,13.8.6l4.9,2.9c2.8,1.6,5.9,2.5,9,2.5s6-.8,8.6-2.3l13.4-7.6c.7-.4,1-1.3.6-2.1-.4-.7-1.3-1-2.1-.6Z"/>
      <polygon class="cls-1" points="96.5 143.5 96.5 143.5 96.5 143.5 96.5 143.5"/>
      <path class="cls-1" d="M197.6,89.1c.8-2.9.4-5.3-1.2-6.8-3-2.8-8.7-1.9-13.2,1.9-.4-1.4-1.2-2.8-2.1-4.1,3.8,0,6.6-1.5,7.5-4,.7-2.1,0-4.4-2-6.6-1.8-2-4.5-3.6-7.6-4.7-.2,0-.4-.1-.6-.2,1.1-1.1,2-2.4,2.9-3.8,3.6-6.2,3.7-12.8,0-14.9-3.1-1.8-7.5.1-11.1,4.6-1.2-2.4-2.9-4.4-4.8-5.7-2.2-1.5-4.5-1.8-6.5-.9-2.3,1-3.5,3.5-3.6,6.5-1.5-.8-3.2-1.4-5.2-1.7,2.6-2.8,3.5-5.8,2.3-8.2-1-2-3.2-3.1-6.2-3.1-2.7,0-5.7.8-8.6,2.2-.2,0-.3.2-.5.3,0-1.5-.4-3.1-.8-4.7-2-7-6.7-11.4-10.8-10.3-3.4,1-5.1,5.6-4.3,11.2-3.4-1.1-6.8-1-9.3.2-1.6.8-2.7,2-3.2,3.4-.9,2.5.2,5.4,2.7,7.6-2.6.5-5,1.5-6.7,3-2,1.7-2.9,3.9-2.6,6,.3,2.2,1.9,3.9,4.3,4.9-4,2.4-6.1,6.2-5,9.4.2.7.6,1.3,1.1,1.9-1.5,1-2.4,2.5-2.7,4.1-.3,2.1.8,4.2,2.7,5.9-4.6,1.1-7.8,4.2-7.6,7.7.2,3.8,4.3,6.6,9.7,6.9-2.3,3-3,6.1-1.6,8.4,1.1,1.7,3.1,2.6,5.7,2.6h0c2.7,0,6-1,9.1-2.9.7-.5,2.3-1.7,4.8-3.8.6-.5.7-1.5.2-2.2-.5-.7-1.5-.7-2.2-.2-3.1,2.6-4.1,3.3-4.4,3.5-4.8,2.9-9.6,3.1-10.7,1.3-.9-1.4.4-4.6,4.1-7.5.6-.4.7-1.2.4-1.9s-1-1-1.7-.8c-.8.2-1.5.3-2.2.3-4.3.2-8-1.6-8.2-4-.1-2.4,3.5-4.6,7.7-4.9,1,0,2,0,3,.2.8.2,1.6-.4,1.8-1.2.2-.8-.4-1.6-1.2-1.8-3.8-.8-6.7-3.2-6.4-5.3.3-2.3,4.3-3.9,8.4-3.3l6.4,1.1c.8.1,1.6-.4,1.8-1.2.2-.8-.4-1.6-1.2-1.8l-3.8-.7c-.2-.1-.5-.2-.8-.1l-1.8-.3c-2.2-.3-4.3-.2-6.1.4-.5-.3-1.1-.8-1.4-1.5-.8-2.2,2-5.4,6-6.9.8-.3,1.7-.5,2.7-.6.8,0,1.4-.8,1.3-1.7s-.8-1.4-1.6-1.4c-3.8.3-7.2-1.2-7.6-3.3-.2-1.4.9-2.6,1.6-3.2,1.4-1.2,3.4-2,5.6-2.4,1.5-.2,3-.2,4.5.1.8.2,1.6-.3,1.8-1.1.2-.8-.2-1.6-1-1.9-4-1.4-6.8-4.5-6-6.7.2-.7.8-1.2,1.6-1.6,1.8-.9,4.6-.9,7.3,0,.7.2,1.3.5,2.1.9.5.3,1.2.2,1.7-.1.5-.4.7-1,.5-1.6-1.5-5.4-.4-9.8,1.6-10.4,2-.6,5.4,2.8,7,8.2.7,2.2.9,4.5.6,6.5,0,.6.2,1.2.8,1.5.5.3,1.2.3,1.7,0,.9-.7,1.8-1.2,2.6-1.6,2.4-1.2,5-2,7.2-1.9,1.8,0,3.1.5,3.5,1.4.7,1.5-.8,4.5-4.6,7.1-.6.4-.8,1.2-.6,1.8.3.7.9,1.1,1.7,1,.8-.1,1.5-.2,2.2-.2,2.8,0,5.4,1,6.8,2.5.4.5,1,1.2,1,2.1,0,.7-.4,1.4-1,2-1.5,1.4-4.2,2.3-7,2.2-1,0-2-.2-3-.4-.8-.2-1.6.3-1.9,1.1-.2.8.2,1.6,1,1.9,3.7,1.1,6.4,3.7,5.9,5.8-.2.7-.6,1.3-1.4,1.8-1.7,1.1-4.5,1.4-7.3.8-.8-.2-1.6.3-1.8,1.2-.2.8.3,1.7,1.2,1.8,1.2.3,2.3.4,3.5.4h0c2.3,0,4.5-.6,6.1-1.6,1.5-1,2.4-2.2,2.8-3.8.5-2.1-.4-4.3-2.2-6.1,2.5-.4,4.7-1.4,6.2-2.8,1-.9,1.6-2,1.8-3.1.5-.4.6-1.1.4-1.8-2-4.3-1.2-8.1.7-9,1.3-.6,2.8.1,3.5.6,1.5,1,2.9,2.7,3.8,4.7.3.6.5,1.3.7,2.1.2.6.7,1,1.3,1.1.6,0,1.2-.2,1.5-.7,2.9-4.8,6.9-7,8.6-6,1.8,1,1.7,5.8-1.1,10.7-1.2,2-2.7,3.7-4.3,4.9-.5.4-.7,1-.6,1.6s.6,1,1.2,1.2c1.1.2,2.1.5,3,.8,2.6.9,4.9,2.3,6.3,3.9,1.2,1.3,1.7,2.6,1.4,3.5-.6,1.5-3.8,2.5-8.4,1.5-.7-.2-1.4.2-1.7.8-.3.7-.1,1.4.4,1.9.7.5,1.2,1,1.7,1.5,1.5,1.6,2.5,3.6,2.8,5.4.2.9.3,2.5-.8,3.5-1,.9-2.7.7-3.5.4-1.7-.5-3.6-1.7-5-3.3-.6-.6-1.5-.7-2.2-.1-.6.6-.7,1.5-.1,2.2,1.9,2.1,4.2,3.6,6.5,4.2.8.2,1.6.3,2.4.3h0c1.6,0,3-.5,4-1.4,1.1-1,1.8-2.5,1.9-4.2.2,0,.3-.2.4-.3,3.9-4,8.6-4.4,10.2-3,.7.7.8,2,.4,3.8-.6,2.1-2,4.4-3.9,6.4-1.6,1.7-3.4,3-5.3,3.8-.6.2-.9.8-.9,1.4s.4,1.2.9,1.4c1,.5,1.9.9,2.7,1.4,4.7,3,6.9,7.3,5.8,9-.9,1.4-4.3,1.6-8.5-.4-.6-.3-1.4-.1-1.9.4-.4.6-.4,1.4,0,1.9.5.7.9,1.3,1.3,1.9,2,3.7,2,7.9,0,9.1-1.2.7-2.8,0-3.5-.4-1.6-.9-3.1-2.5-4.2-4.4-.5-.9-.9-1.8-1.1-2.8-.2-.8-1-1.3-1.9-1.1-.8.2-1.3,1-1.1,1.8.9,3.8,0,7.4-2,8-1.4.4-2.7-.5-3.4-1.1-1.2-1-2.3-2.6-3-4.5l.9-1.5c.4-.6.3-1.4-.2-1.9-.5-.5-1.4-.5-1.9-.1-3,2.1-6.3,2.6-7.7,1.1-1.7-1.9,0-5.9,1.7-8.9.4-.7.2-1.7-.6-2.1-.7-.4-1.7-.2-2.1.6-3.2,5.7-3.7,9.9-1.3,12.5,1.8,2,5,2.4,8.3,1.2.9,2.4,2.3,4.6,4,6,1.5,1.2,3.1,1.9,4.6,1.9h0c.6,0,1.1-.1,1.7-.3,2.1-.7,3.5-2.5,4.2-5,1.1,1.3,2.3,2.4,3.7,3.2,2.3,1.3,4.6,1.4,6.5.4,3.3-1.8,4.1-6.8,2-11.7,3.7.8,6.8,0,8.2-2.2,2.3-3.5-.7-9.3-6.7-13.3-.2-.1-.3-.2-.5-.3,1.3-.9,2.5-1.9,3.6-3.1,2.2-2.4,3.9-5.1,4.6-7.6Z"/>
      <path class="cls-1" d="M88.8,116.7c.1.8.8,1.3,1.5,1.3h0c0,0,.1,0,.2,0,.8-.1,1.4-.9,1.3-1.7l-5.4-40.1c-.1-.8-.9-1.4-1.7-1.3-.8.1-1.4.9-1.3,1.7l5.4,40.1Z"/>
      <path class="cls-1" d="M80.1,121.8c.2.7.8,1.1,1.5,1.1s.2,0,.4,0c.8-.2,1.3-1,1.1-1.9l-9.8-38.1c-.2-.8-1-1.3-1.9-1.1-.8.2-1.3,1-1.1,1.9l9.8,38.1Z"/>
      <path class="cls-1" d="M74.4,130.7c.3.5.8.8,1.4.8h0c.2,0,.5,0,.7-.2.7-.4,1-1.3.6-2.1l-15.3-28.4c-.4-.7-1.3-1-2.1-.6-.7.4-1,1.3-.6,2.1l15.3,28.4Z"/>
      <path class="cls-1" d="M57.2,165.8c0,0,.2,0,.2,0,.8-.1,1.4-.9,1.3-1.8l-6-38.9c-.1-.8-.9-1.4-1.8-1.3-.8.1-1.4.9-1.3,1.8l6,38.9c.1.8.8,1.3,1.5,1.3Z"/>
      <path class="cls-1" d="M65.3,154.5c.9,0,1.5-.7,1.5-1.6l-.5-23.6c0-.9-.7-1.5-1.6-1.5-.9,0-1.5.7-1.5,1.6l.5,23.6c0,.8.7,1.5,1.5,1.5h0s0,0,0,0Z"/>
    </g>
  </g>
</svg>