<?xml version="1.0" encoding="UTF-8"?>
<svg id="b" xmlns="http://www.w3.org/2000/svg" version="1.1" viewBox="0 0 251 251">
  <defs>
    <style>
      .cls-1 {
        fill: #534d75;
      }

      .cls-1, .cls-2 {
        stroke-width: 0px;
      }

      .cls-2 {
        fill: #fff;
      }
    </style>
  </defs>
  <g id="c">
    <circle class="cls-2" cx="125.5" cy="125.5" r="124.8"/>
  </g>
  <g>
    <path class="cls-1" d="M60.8,64.1l21.5,6.2v31.6c0,.6.3,1.2.9,1.4l39.9,17.7c.2,0,.4.1.6.1s.4,0,.6-.1l38.5-16.4c.6-.2.9-.8.9-1.4v-29.9s28-8.2,28-8.2v18.8c-1.8.6-3.1,2.3-3.1,4.3s2.1,4.6,4.6,4.6,4.6-2.1,4.6-4.6-1.3-3.7-3.1-4.3v-19.7l2-.6c.7-.2,1.1-.8,1.1-1.5s-.5-1.3-1.1-1.5l-67.3-19.3c-.3,0-.6,0-.8,0l-67.9,19.9c-.6.2-1.1.8-1.1,1.5s.5,1.3,1.1,1.5ZM160.7,102.1l-37,15.8-38.4-17v-29.8s42.8,12.3,42.8,12.3c.1,0,.3,0,.4,0h0c.2,0,.3,0,.4,0l31.7-9.3v28ZM129.1,44.3l54.2,15.6-56.2-1.1h0c-.8,0-1.5.7-1.5,1.5,0,.8.7,1.5,1.5,1.6l60.5,1.2-59.1,17.3-61.8-17.7h0s62.4-18.3,62.4-18.3Z"/>
    <path class="cls-1" d="M133,180.9c6.3-2.1,10.9-8.1,10.9-15.1v-17.9c0-8.8-7.1-15.9-15.9-15.9h-5.1c-8.8,0-15.9,7.1-15.9,15.9v17.9c0,7,4.6,13,10.9,15.1-12.8,3.2-22.3,14.2-22.3,27.3s.7,1.5,1.5,1.5,1.5-.7,1.5-1.5c0-13.9,12-25.2,26.7-25.2s26.7,11.3,26.7,25.2.7,1.5,1.5,1.5,1.5-.7,1.5-1.5c0-13.1-9.5-24.2-22.3-27.3ZM110.1,165.8v-17.9c0-7.1,5.8-12.8,12.8-12.8h5.1c7.1,0,12.8,5.8,12.8,12.8v17.9c0,7.1-5.8,12.8-12.8,12.8h-5.1c-7.1,0-12.8-5.8-12.8-12.8Z"/>
    <path class="cls-1" d="M201.5,178.9c-3.4-7.6-10.2-13-18.3-15.1,5.8-2,9.9-7.6,9.9-14v-16.7c0-8.2-6.7-14.9-14.9-14.9h-4.7c-8.2,0-14.9,6.7-14.9,14.9v16.7c0,6.5,4.2,12,9.9,14-8.1,2.1-14.9,7.6-18.3,15.2-.3.8,0,1.7.8,2,.2,0,.4.1.6.1h0c.6,0,1.1-.3,1.4-.9,3.9-8.7,12.8-14.3,22.8-14.3s18.9,5.6,22.8,14.3c.3.8,1.2,1.1,2,.8.8-.3,1.1-1.2.8-2ZM161.7,149.8v-16.7c0-6.5,5.3-11.8,11.8-11.8h4.7c6.5,0,11.8,5.3,11.8,11.8v16.7c0,6.5-5.3,11.8-11.8,11.8h-4.7c-6.5,0-11.8-5.3-11.8-11.8Z"/>
    <path class="cls-1" d="M99.9,181c.8-.3,1.1-1.2.8-2-3.4-7.6-10.2-13.1-18.3-15.1,5.8-2,9.9-7.6,9.9-14v-16.7c0-8.2-6.7-14.9-14.9-14.9h-4.7c-8.2,0-14.9,6.7-14.9,14.9v16.7c0,6.5,4.2,12,9.9,14-8.1,2.1-14.9,7.6-18.3,15.2-.4.8,0,1.7.8,2,.2,0,.4.1.6.1h0c.6,0,1.2-.3,1.4-.9,3.9-8.7,12.9-14.3,22.8-14.3s18.9,5.6,22.8,14.3c.3.8,1.2,1.1,2,.8ZM60.9,149.8v-16.7c0-6.5,5.3-11.8,11.8-11.8h4.7c6.5,0,11.8,5.3,11.8,11.8v16.7c0,6.5-5.3,11.8-11.8,11.8h-4.7c-6.5,0-11.8-5.3-11.8-11.8Z"/>
  </g>
</svg>