<?xml version="1.0" encoding="UTF-8"?>
<svg id="b" xmlns="http://www.w3.org/2000/svg" version="1.1" viewBox="0 0 251 251">
  <defs>
    <style>
      .cls-1 {
        fill: #2cafc0;
      }

      .cls-1, .cls-2 {
        stroke-width: 0px;
      }

      .cls-2 {
        fill: #fff;
      }
    </style>
  </defs>
  <g id="c">
    <circle class="cls-2" cx="125.5" cy="125.5" r="124.8"/>
    <g>
      <path class="cls-1" d="M176.7,207.4h-21.9l-5.8-17.8c24.2-4.8,41.5-25.9,41.5-50.7s-14-41.8-34.9-48.9c0-.2-.2-.4-.2-.7l.4-.6c1.1-1.9,1.4-4.1.8-6.2-.3-1.1-.8-2.1-1.4-2.9l20.1-34.8c.2-.3.3-.8.1-1.2,0-.4-.4-.7-.7-.9l-14.2-8.2c-.7-.4-1.7-.2-2.1.6l-19.8,34.3c-1.7-.7-3.5-.9-5.4-.4-2.1.6-3.8,1.9-4.9,3.8l-15.4,26.5c-1.5,2.7-1.4,5.9.2,8.4l-7.9,13.7c-1,1.7-1.2,3.7-.7,5.6.3,1.2.9,2.2,1.7,3l-5.2,9.1c-.2.3-.3.8-.2,1.2.1.4.4.7.7.9l8.1,4.7c.2.1.5.2.8.2.5,0,1-.3,1.3-.8l5.3-9.2c.4,0,.8.1,1.2.1,2.5,0,5-1.3,6.4-3.7l7.8-13.5c.4,0,.7,0,1.1,0,2.8,0,5.5-1.5,7-4l5.8-10.1c1.1-.2,2.1-.5,3.1-.9,11.8,6,19.1,17.9,19.1,31.2,0,19.4-15.8,35.1-35.1,35.1s-19.3-4.2-26-11.5h10.8c.8,0,1.5-.7,1.5-1.5s-.7-1.5-1.5-1.5h-39.8c-.8,0-1.5.7-1.5,1.5s.7,1.5,1.5,1.5h12.8c6.7,15.8,21.1,27.4,38,30.6v17.7h-49.4c-.8,0-1.5.7-1.5,1.5s.7,1.5,1.5,1.5h97c.8,0,1.5-.7,1.5-1.5s-.7-1.5-1.5-1.5ZM148.8,101c0,0-.2,0-.3.2-1.2.6-2.5,1-4,1-4.8,0-8.7-3.9-8.7-8.7s3.9-8.7,8.7-8.7c4.8,0,8.7,3.9,8.7,8.7s-1.8,6-4.4,7.5ZM160.2,37.9l11.6,6.7-19,32.9-9.3-5.3-2.3-1.3,19-32.9ZM109.8,142.5l-5.5-3.2,4.3-7.4,5.5,3.2-4.3,7.4ZM121.9,131.1c-1.2,2-3.8,2.8-5.8,1.6l-6.6-3.8c-1-.6-1.7-1.5-2-2.6-.3-1.1-.1-2.2.4-3.2l7.5-13c.2.1.4.2.5.4l13.5,7.8-7.5,12.9ZM137.8,113.6c-1.2,2-3.6,2.9-5.8,2.3l-15.5-9c-1.6-1.6-2.1-4.1-.9-6.2l15.4-26.5c.7-1.2,1.8-2,3-2.3,1.3-.4,2.7-.2,3.8.5l13.5,7.8c1.2.7,2,1.8,2.4,3.1.3.9.2,1.9,0,2.8-2.2-2.6-5.4-4.3-9-4.3s-8.2,2.4-10.2,6c0,.1-.2.3-.2.4-.8,1.6-1.3,3.4-1.3,5.3,0,5.9,4.3,10.7,9.9,11.6l-4.9,8.6ZM94.5,159h8.8c7.3,9.2,18.1,14.5,30,14.5h0c21,0,38.2-17.1,38.2-38.2s-7.3-26.4-19.2-33.1c2.4-2.1,4-5.3,4-8.8s0,0,0-.1c18.8,7.1,31.3,25.1,31.3,45.5s-16.5,43.4-39.4,47.8l-.5-1.6c-1.3-3.9-4.9-6.5-9-6.5s-8.7,3.5-9.3,8.1c-15.2-3-28.3-13.3-34.8-27.5ZM132.2,207.4v-19.5c0-3.5,2.9-6.4,6.4-6.4s5.2,1.8,6.1,4.4l6.9,21.5h-19.4Z"/>
      <path class="cls-1" d="M133.4,119.2s0,0,0,0,0,0,0,0h0Z"/>
      <path class="cls-1" d="M94.8,111.9c0-14.9-17.7-45.3-28.1-61-.3-.5-.8-.7-1.4-.7-.6,0-1,.4-1.3.9-1.6,3.8-4.3,9.2-7.6,15.4-7.9,15.2-17.7,34.1-17.7,45.3,0,17,11.2,29.4,26.6,29.4s29.4-13.2,29.4-29.4ZM65.5,138.2c-13.9,0-23.6-10.8-23.6-26.3s10-29.8,17.3-43.9c2.6-5,4.9-9.4,6.5-13h0c10.4,15.9,26,43.5,26,56.9s-12.4,26.3-26.3,26.3Z"/>
      <polygon class="cls-1" points="66.7 128.2 66.7 128.2 66.7 128.2 66.7 128.2"/>
      <path class="cls-1" d="M82.3,104.4l-2.4-2.4c-.9-.9-2.2-1.4-3.4-1.4,0-1.3-.5-2.5-1.5-3.5l-2.4-2.4c-3.2-3.2-8.5-3.2-11.7,0l-2.4,2.4c-.9.9-1.4,2.2-1.5,3.5-1.3,0-2.5.5-3.4,1.4l-2.4,2.4c-3.2,3.2-3.2,8.5,0,11.7l2.4,2.4c.9.9,2.1,1.4,3.4,1.5,0,1.3.5,2.5,1.5,3.4l2.4,2.4c1.6,1.6,3.7,2.4,5.8,2.4,2.1,0,4.2-.8,5.8-2.4l2.4-2.4c.9-.9,1.4-2.2,1.4-3.4,1.3,0,2.5-.5,3.4-1.4l2.4-2.4c3.2-3.2,3.2-8.5,0-11.7ZM60.6,99.2l2.4-2.4c1-1,2.3-1.5,3.7-1.5h0c1.3,0,2.7.5,3.7,1.5l2.4,2.4c.7.7.7,1.9,0,2.7,0,0,0,0,0,0l-6.1,6.1-6.1-6.1c-.4-.4-.6-.8-.6-1.4s.2-1,.6-1.4ZM53.3,113.9c-2-2-2-5.3,0-7.3l2.4-2.4c.4-.4.8-.6,1.4-.6h0c.5,0,1,.2,1.3.6l6.1,6.1-6.1,6.1c-.7.7-2,.7-2.7,0l-2.4-2.4ZM72.8,121.2l-2.4,2.4c-2,2-5.3,2-7.4,0l-2.4-2.4c-.4-.4-.6-.8-.6-1.3s.2-1,.6-1.4l6.1-6.1,6.1,6.1h0c.8.8.8,2,0,2.7ZM80.1,113.9l-2.4,2.4c-.7.7-2,.7-2.7,0l-6.1-6.1,6.1-6.1s0,0,0,0c.7-.7,2-.7,2.7,0l2.4,2.4c2,2,2,5.3,0,7.3Z"/>
    </g>
  </g>
</svg>